<?xml version="1.0" encoding="utf-8"?>
<!-- Generator: Adobe Illustrator 28.1.0, SVG Export Plug-In . SVG Version: 6.00 Build 0)  -->
<svg version="1.1" xmlns="http://www.w3.org/2000/svg" xmlns:xlink="http://www.w3.org/1999/xlink" x="0px" y="0px"
	 viewBox="0 0 14 16" style="enable-background:new 0 0 14 16;" xml:space="preserve">
<style type="text/css">
	.st0{fill:#FFFFFF;stroke:#000000;stroke-miterlimit:10;}
	.st1{stroke:#000000;stroke-miterlimit:10;}
	.st2{fill:#FFFFFF;}
</style>
<g id="Calque_2">
	<ellipse class="st0" cx="-4.7" cy="6.2" rx="0.3" ry="0"/>
	<path class="st1" d="M6.2,8.2l11.1-0.8c0.4,5.7-4.1,10.9-10.2,11.4C1.1,19.3-4.4,15-4.9,9.2s4.1-11,10.2-11.5s11.5,3.8,12,9.6
		L6.2,8.2z"/>
	<ellipse class="st1" cx="22" cy="7.7" rx="0.2" ry="0.1"/>
	<circle class="st1" cx="-4.7" cy="6.3" r="0"/>
</g>
<g id="Calque_1">
	<path class="st2" d="M1,1C0.4,1,0,1.4,0,2v3c0,0.6,0.4,1,1,1s1-0.4,1-1V3h2c0.6,0,1-0.4,1-1S4.6,1,4,1H1z M2,11c0-0.6-0.4-1-1-1
		s-1,0.4-1,1v3c0,0.6,0.4,1,1,1h3c0.6,0,1-0.4,1-1s-0.4-1-1-1H2V11z M10,1C9.4,1,9,1.4,9,2s0.4,1,1,1h2v2c0,0.6,0.4,1,1,1s1-0.4,1-1
		V2c0-0.6-0.4-1-1-1H10z M14,11c0-0.6-0.4-1-1-1s-1,0.4-1,1v2h-2c-0.6,0-1,0.4-1,1s0.4,1,1,1h3c0.6,0,1-0.4,1-1V11z"/>
</g>
</svg>
